<svg xmlns="http://www.w3.org/2000/svg" xmlns:xlink="http://www.w3.org/1999/xlink" width="500" zoomAndPan="magnify" viewBox="0 0 375 374.999991" height="500" preserveAspectRatio="xMidYMid meet" version="1.0"><defs><clipPath id="e2b9a42132"><path d="M 23.523438 0 L 351.273438 0 L 351.273438 375 L 23.523438 375 Z M 23.523438 0 " clip-rule="nonzero"/></clipPath></defs><g clip-path="url(#e2b9a42132)"><path fill="#80c2af" d="M 187.496094 0.101562 C 174.539062 0.101562 164.074219 10.570312 164.074219 23.523438 L 164.074219 37.582031 C 110.632812 48.414062 70.371094 95.703125 70.371094 152.363281 L 70.371094 166.125 C 70.371094 200.53125 57.707031 233.765625 34.871094 259.53125 L 29.453125 265.609375 C 23.304688 272.488281 21.839844 282.371094 25.574219 290.789062 C 29.304688 299.207031 37.722656 304.625 46.949219 304.625 L 328.046875 304.625 C 337.269531 304.625 345.617188 299.207031 349.421875 290.789062 C 353.230469 282.371094 351.691406 272.488281 345.542969 265.609375 L 340.125 259.53125 C 317.285156 233.765625 304.621094 200.601562 304.621094 166.125 L 304.621094 152.363281 C 304.621094 95.703125 264.359375 48.414062 210.921875 37.582031 L 210.921875 23.523438 C 210.921875 10.570312 200.453125 0.101562 187.496094 0.101562 Z M 220.660156 361.210938 C 229.441406 352.425781 234.347656 340.496094 234.347656 328.050781 L 140.648438 328.050781 C 140.648438 340.496094 145.550781 352.425781 154.335938 361.210938 C 163.121094 369.996094 175.054688 374.898438 187.496094 374.898438 C 199.941406 374.898438 211.875 369.996094 220.660156 361.210938 Z M 220.660156 361.210938 " fill-opacity="1" fill-rule="nonzero"/></g></svg>