<?xml version="1.0" encoding="iso-8859-1"?>
<!-- Uploaded to: SVG Repo, www.svgrepo.com, Generator: SVG Repo Mixer Tools -->
<svg fill="#FFFFFF" height="800px" width="800px" version="1.1" id="Capa_1" xmlns="http://www.w3.org/2000/svg" xmlns:xlink="http://www.w3.org/1999/xlink" 
	 viewBox="0 0 612 612" xml:space="preserve">
<g>
	<path d="M418.449,577.171c7.011-18.084,24.55-30.958,45.079-30.958v-34.829c-39.907,0-73.326,28.244-81.356,65.788H347.91
		c8.436-56.239,57.065-99.507,115.618-99.507v-34.829c-46.99,0-89.053,21.47-116.912,55.112V341.812
		c36.426-4.142,70.412-20.557,97.109-47.256c30.889-30.886,48.047-71.519,48.316-114.414l0.109-17.634l-17.634,0.109
		c-42.895,0.269-83.528,17.43-114.414,48.316c-4.854,4.851-9.324,9.971-13.486,15.275V104.14c0-27.819-10.832-53.968-30.5-73.639
		S270.295,0,242.476,0c-52.013,0-95.238,38.327-102.923,88.223c-53.958,7.732-95.574,54.239-95.574,110.299v119.153l70.164-49.298
		l40.579,39.35l45.855-39.412l66.302,51.358V198.522c0-54.809-39.782-100.472-91.982-109.712c6.996-30.861,34.63-53.98,67.579-53.98
		c18.514,0,35.919,7.21,49.01,20.3c13.091,13.091,20.3,30.496,20.3,49.01l-0.109,238.847l0.109,173.308
		c-18.741-16.957-43.569-27.301-70.773-27.301v34.829c33.011,0,60.809,22.724,68.589,53.348h-209.02V612h467.439v-34.829H418.449z
		 M384.732,235.565c19.706-19.708,44.385-32.332,70.915-36.548c-4.219,26.532-16.842,51.209-36.548,70.915
		c-19.706,19.708-44.385,32.332-70.915,36.548C352.4,279.948,365.023,255.271,384.732,235.565z M232.05,198.522v50.117
		l-32.618-25.266l-43.295,37.213l-38.439-37.275l-38.889,27.326v-52.115c0-42.248,34.372-76.619,76.619-76.619
		S232.05,156.274,232.05,198.522z"/>
</g>
</svg>