<svg xmlns="http://www.w3.org/2000/svg" xmlns:xlink="http://www.w3.org/1999/xlink" width="500" zoomAndPan="magnify" viewBox="0 0 375 374.999991" height="500" preserveAspectRatio="xMidYMid meet" version="1.0"><defs><clipPath id="e1a8ba991c"><path d="M 193.757812 37.5 L 351.808594 37.5 L 351.808594 195.550781 L 193.757812 195.550781 Z M 193.757812 37.5 " clip-rule="nonzero"/></clipPath><clipPath id="3c0643d785"><path d="M 207.867188 51.613281 L 337.699219 51.613281 L 337.699219 181.441406 L 207.867188 181.441406 Z M 207.867188 51.613281 " clip-rule="nonzero"/></clipPath></defs><g clip-path="url(#e1a8ba991c)"><path fill="#ffffff" d="M 351.808594 116.527344 C 351.808594 117.820312 351.777344 119.113281 351.714844 120.402344 C 351.652344 121.695312 351.554688 122.984375 351.429688 124.273438 C 351.300781 125.558594 351.144531 126.84375 350.953125 128.121094 C 350.765625 129.402344 350.542969 130.675781 350.289062 131.945312 C 350.039062 133.210938 349.753906 134.472656 349.441406 135.726562 C 349.125 136.984375 348.78125 138.230469 348.40625 139.464844 C 348.03125 140.703125 347.625 141.933594 347.191406 143.148438 C 346.753906 144.367188 346.289062 145.574219 345.792969 146.769531 C 345.296875 147.964844 344.773438 149.144531 344.222656 150.3125 C 343.667969 151.484375 343.085938 152.636719 342.476562 153.777344 C 341.867188 154.917969 341.230469 156.042969 340.566406 157.152344 C 339.902344 158.261719 339.210938 159.355469 338.492188 160.429688 C 337.773438 161.507812 337.027344 162.5625 336.257812 163.601562 C 335.488281 164.640625 334.691406 165.660156 333.871094 166.660156 C 333.050781 167.660156 332.207031 168.640625 331.335938 169.597656 C 330.46875 170.554688 329.578125 171.492188 328.664062 172.40625 C 327.75 173.320312 326.8125 174.210938 325.855469 175.082031 C 324.894531 175.949219 323.917969 176.792969 322.917969 177.613281 C 321.917969 178.433594 320.898438 179.230469 319.859375 180 C 318.820312 180.769531 317.761719 181.515625 316.6875 182.234375 C 315.613281 182.953125 314.519531 183.644531 313.410156 184.308594 C 312.300781 184.972656 311.175781 185.613281 310.035156 186.222656 C 308.894531 186.832031 307.738281 187.414062 306.570312 187.964844 C 305.402344 188.519531 304.21875 189.042969 303.023438 189.535156 C 301.832031 190.03125 300.625 190.496094 299.40625 190.933594 C 298.1875 191.367188 296.960938 191.773438 295.722656 192.148438 C 294.484375 192.523438 293.238281 192.871094 291.984375 193.183594 C 290.730469 193.5 289.46875 193.78125 288.199219 194.035156 C 286.933594 194.285156 285.65625 194.507812 284.378906 194.695312 C 283.097656 194.886719 281.816406 195.046875 280.527344 195.171875 C 279.242188 195.300781 277.953125 195.394531 276.660156 195.457031 C 275.367188 195.519531 274.078125 195.550781 272.78125 195.550781 C 271.488281 195.550781 270.195312 195.519531 268.90625 195.457031 C 267.613281 195.394531 266.324219 195.300781 265.035156 195.171875 C 263.75 195.046875 262.464844 194.886719 261.1875 194.695312 C 259.90625 194.507812 258.632812 194.285156 257.367188 194.035156 C 256.097656 193.78125 254.835938 193.5 253.582031 193.183594 C 252.328125 192.871094 251.082031 192.523438 249.84375 192.148438 C 248.605469 191.773438 247.378906 191.367188 246.160156 190.933594 C 244.941406 190.496094 243.734375 190.03125 242.539062 189.535156 C 241.347656 189.042969 240.164062 188.519531 238.996094 187.964844 C 237.824219 187.414062 236.671875 186.832031 235.53125 186.222656 C 234.390625 185.613281 233.265625 184.972656 232.15625 184.308594 C 231.046875 183.644531 229.953125 182.953125 228.878906 182.234375 C 227.804688 181.515625 226.746094 180.769531 225.707031 180 C 224.667969 179.230469 223.648438 178.433594 222.648438 177.613281 C 221.648438 176.792969 220.671875 175.949219 219.710938 175.082031 C 218.753906 174.210938 217.816406 173.320312 216.902344 172.40625 C 215.988281 171.492188 215.097656 170.554688 214.226562 169.597656 C 213.359375 168.640625 212.515625 167.660156 211.695312 166.660156 C 210.875 165.660156 210.078125 164.640625 209.308594 163.601562 C 208.539062 162.5625 207.792969 161.507812 207.074219 160.429688 C 206.355469 159.355469 205.664062 158.261719 205 157.152344 C 204.335938 156.042969 203.699219 154.917969 203.089844 153.777344 C 202.476562 152.636719 201.898438 151.484375 201.34375 150.3125 C 200.792969 149.144531 200.265625 147.964844 199.773438 146.769531 C 199.277344 145.574219 198.8125 144.367188 198.375 143.148438 C 197.941406 141.933594 197.535156 140.703125 197.160156 139.464844 C 196.785156 138.230469 196.4375 136.984375 196.125 135.726562 C 195.8125 134.472656 195.527344 133.210938 195.273438 131.945312 C 195.023438 130.675781 194.800781 129.402344 194.613281 128.121094 C 194.421875 126.84375 194.265625 125.558594 194.136719 124.273438 C 194.011719 122.984375 193.914062 121.695312 193.851562 120.402344 C 193.789062 119.113281 193.757812 117.820312 193.757812 116.527344 C 193.757812 115.234375 193.789062 113.941406 193.851562 112.648438 C 193.914062 111.355469 194.011719 110.066406 194.136719 108.78125 C 194.265625 107.492188 194.421875 106.210938 194.613281 104.929688 C 194.800781 103.652344 195.023438 102.378906 195.273438 101.109375 C 195.527344 99.839844 195.8125 98.578125 196.125 97.324219 C 196.4375 96.070312 196.785156 94.824219 197.160156 93.585938 C 197.535156 92.347656 197.941406 91.121094 198.375 89.902344 C 198.8125 88.683594 199.277344 87.480469 199.773438 86.285156 C 200.265625 85.089844 200.792969 83.90625 201.34375 82.738281 C 201.898438 81.570312 202.476562 80.414062 203.089844 79.273438 C 203.699219 78.132812 204.335938 77.007812 205 75.898438 C 205.664062 74.789062 206.355469 73.695312 207.074219 72.621094 C 207.792969 71.546875 208.539062 70.488281 209.308594 69.449219 C 210.078125 68.410156 210.875 67.390625 211.695312 66.390625 C 212.515625 65.394531 213.359375 64.414062 214.226562 63.457031 C 215.097656 62.496094 215.988281 61.5625 216.902344 60.644531 C 217.816406 59.730469 218.753906 58.839844 219.710938 57.972656 C 220.671875 57.101562 221.648438 56.257812 222.648438 55.4375 C 223.648438 54.617188 224.667969 53.820312 225.707031 53.050781 C 226.746094 52.28125 227.804688 51.535156 228.878906 50.816406 C 229.953125 50.101562 231.046875 49.40625 232.15625 48.742188 C 233.265625 48.078125 234.390625 47.441406 235.53125 46.832031 C 236.671875 46.222656 237.824219 45.640625 238.996094 45.085938 C 240.164062 44.535156 241.347656 44.011719 242.539062 43.515625 C 243.734375 43.019531 244.941406 42.554688 246.160156 42.121094 C 247.378906 41.683594 248.605469 41.277344 249.84375 40.902344 C 251.082031 40.527344 252.328125 40.183594 253.582031 39.867188 C 254.835938 39.554688 256.097656 39.269531 257.367188 39.019531 C 258.632812 38.765625 259.90625 38.546875 261.1875 38.355469 C 262.464844 38.164062 263.75 38.007812 265.035156 37.878906 C 266.324219 37.753906 267.613281 37.660156 268.90625 37.59375 C 270.195312 37.53125 271.488281 37.5 272.78125 37.5 C 274.078125 37.5 275.367188 37.53125 276.660156 37.59375 C 277.953125 37.660156 279.242188 37.753906 280.527344 37.878906 C 281.816406 38.007812 283.097656 38.164062 284.378906 38.355469 C 285.65625 38.546875 286.933594 38.765625 288.199219 39.019531 C 289.46875 39.269531 290.730469 39.554688 291.984375 39.867188 C 293.238281 40.183594 294.484375 40.527344 295.722656 40.902344 C 296.960938 41.277344 298.1875 41.683594 299.40625 42.121094 C 300.625 42.554688 301.832031 43.019531 303.023438 43.515625 C 304.21875 44.011719 305.402344 44.535156 306.570312 45.085938 C 307.742188 45.640625 308.894531 46.222656 310.035156 46.832031 C 311.175781 47.441406 312.300781 48.078125 313.410156 48.742188 C 314.519531 49.40625 315.613281 50.101562 316.6875 50.816406 C 317.761719 51.535156 318.820312 52.28125 319.859375 53.050781 C 320.898438 53.820312 321.917969 54.617188 322.917969 55.4375 C 323.917969 56.257812 324.894531 57.101562 325.855469 57.972656 C 326.8125 58.839844 327.75 59.730469 328.664062 60.644531 C 329.578125 61.5625 330.46875 62.496094 331.335938 63.457031 C 332.207031 64.414062 333.050781 65.394531 333.871094 66.390625 C 334.691406 67.390625 335.488281 68.410156 336.257812 69.449219 C 337.027344 70.488281 337.773438 71.546875 338.492188 72.621094 C 339.210938 73.695312 339.902344 74.789062 340.566406 75.898438 C 341.230469 77.007812 341.867188 78.132812 342.476562 79.273438 C 343.085938 80.414062 343.667969 81.570312 344.222656 82.738281 C 344.773438 83.90625 345.296875 85.089844 345.792969 86.285156 C 346.289062 87.480469 346.753906 88.683594 347.191406 89.902344 C 347.625 91.121094 348.03125 92.347656 348.40625 93.585938 C 348.78125 94.824219 349.125 96.070312 349.441406 97.324219 C 349.753906 98.578125 350.039062 99.839844 350.289062 101.109375 C 350.542969 102.378906 350.765625 103.652344 350.953125 104.929688 C 351.144531 106.210938 351.300781 107.492188 351.429688 108.78125 C 351.554688 110.066406 351.652344 111.355469 351.714844 112.648438 C 351.777344 113.941406 351.808594 115.234375 351.808594 116.527344 Z M 351.808594 116.527344 " fill-opacity="1" fill-rule="nonzero"/></g><g clip-path="url(#3c0643d785)"><path fill="#ff3131" d="M 337.363281 116.359375 C 337.363281 117.417969 337.335938 118.476562 337.285156 119.535156 C 337.230469 120.59375 337.15625 121.652344 337.050781 122.703125 C 336.945312 123.757812 336.816406 124.8125 336.660156 125.859375 C 336.507812 126.90625 336.324219 127.949219 336.117188 128.988281 C 335.910156 130.03125 335.679688 131.0625 335.421875 132.089844 C 335.164062 133.117188 334.882812 134.140625 334.574219 135.152344 C 334.265625 136.167969 333.933594 137.171875 333.578125 138.171875 C 333.21875 139.167969 332.839844 140.15625 332.433594 141.136719 C 332.027344 142.117188 331.597656 143.082031 331.144531 144.042969 C 330.691406 145 330.214844 145.945312 329.71875 146.878906 C 329.21875 147.816406 328.695312 148.738281 328.152344 149.644531 C 327.605469 150.554688 327.039062 151.449219 326.449219 152.332031 C 325.863281 153.210938 325.25 154.078125 324.621094 154.929688 C 323.988281 155.78125 323.335938 156.613281 322.664062 157.433594 C 321.992188 158.253906 321.300781 159.054688 320.589844 159.839844 C 319.878906 160.625 319.148438 161.390625 318.398438 162.140625 C 317.648438 162.890625 316.882812 163.621094 316.097656 164.332031 C 315.3125 165.042969 314.507812 165.738281 313.691406 166.410156 C 312.871094 167.082031 312.035156 167.734375 311.183594 168.363281 C 310.332031 168.996094 309.46875 169.605469 308.585938 170.195312 C 307.707031 170.78125 306.8125 171.347656 305.902344 171.894531 C 304.992188 172.4375 304.070312 172.960938 303.136719 173.460938 C 302.203125 173.960938 301.257812 174.4375 300.296875 174.890625 C 299.339844 175.34375 298.371094 175.773438 297.394531 176.175781 C 296.414062 176.582031 295.425781 176.964844 294.429688 177.320312 C 293.429688 177.675781 292.425781 178.011719 291.410156 178.316406 C 290.394531 178.625 289.375 178.90625 288.347656 179.164062 C 287.320312 179.421875 286.285156 179.65625 285.246094 179.863281 C 284.207031 180.066406 283.164062 180.25 282.117188 180.40625 C 281.066406 180.558594 280.015625 180.691406 278.960938 180.792969 C 277.90625 180.898438 276.851562 180.976562 275.792969 181.027344 C 274.734375 181.078125 273.675781 181.105469 272.617188 181.105469 C 271.554688 181.105469 270.496094 181.078125 269.4375 181.027344 C 268.378906 180.976562 267.324219 180.898438 266.269531 180.792969 C 265.214844 180.691406 264.164062 180.558594 263.113281 180.40625 C 262.066406 180.25 261.023438 180.066406 259.984375 179.863281 C 258.945312 179.65625 257.910156 179.421875 256.882812 179.164062 C 255.855469 178.90625 254.835938 178.625 253.820312 178.316406 C 252.804688 178.011719 251.800781 177.675781 250.804688 177.320312 C 249.804688 176.964844 248.816406 176.582031 247.835938 176.175781 C 246.859375 175.773438 245.890625 175.34375 244.933594 174.890625 C 243.976562 174.4375 243.027344 173.960938 242.09375 173.460938 C 241.160156 172.960938 240.238281 172.4375 239.328125 171.894531 C 238.421875 171.347656 237.523438 170.78125 236.644531 170.195312 C 235.761719 169.605469 234.898438 168.996094 234.046875 168.363281 C 233.195312 167.734375 232.359375 167.082031 231.539062 166.410156 C 230.722656 165.738281 229.917969 165.042969 229.132812 164.332031 C 228.347656 163.621094 227.582031 162.890625 226.832031 162.140625 C 226.082031 161.390625 225.351562 160.625 224.640625 159.839844 C 223.929688 159.054688 223.238281 158.253906 222.566406 157.433594 C 221.894531 156.613281 221.242188 155.78125 220.609375 154.929688 C 219.980469 154.078125 219.367188 153.210938 218.78125 152.332031 C 218.191406 151.449219 217.625 150.554688 217.082031 149.644531 C 216.535156 148.738281 216.011719 147.816406 215.515625 146.878906 C 215.015625 145.945312 214.539062 145 214.085938 144.042969 C 213.632812 143.082031 213.203125 142.117188 212.796875 141.136719 C 212.390625 140.15625 212.011719 139.167969 211.652344 138.171875 C 211.296875 137.171875 210.964844 136.167969 210.65625 135.152344 C 210.347656 134.140625 210.066406 133.117188 209.808594 132.089844 C 209.550781 131.0625 209.320312 130.03125 209.113281 128.988281 C 208.90625 127.949219 208.726562 126.90625 208.570312 125.859375 C 208.414062 124.8125 208.285156 123.757812 208.179688 122.703125 C 208.078125 121.652344 208 120.59375 207.945312 119.535156 C 207.894531 118.476562 207.867188 117.417969 207.867188 116.359375 C 207.867188 115.300781 207.894531 114.238281 207.945312 113.183594 C 208 112.125 208.078125 111.066406 208.179688 110.011719 C 208.285156 108.957031 208.414062 107.90625 208.570312 106.859375 C 208.726562 105.808594 208.90625 104.765625 209.113281 103.726562 C 209.320312 102.6875 209.550781 101.65625 209.808594 100.625 C 210.066406 99.597656 210.347656 98.578125 210.65625 97.5625 C 210.964844 96.550781 211.296875 95.542969 211.652344 94.546875 C 212.011719 93.546875 212.390625 92.558594 212.796875 91.582031 C 213.203125 90.601562 213.632812 89.632812 214.085938 88.675781 C 214.539062 87.71875 215.015625 86.773438 215.515625 85.835938 C 216.011719 84.902344 216.535156 83.980469 217.082031 83.070312 C 217.625 82.164062 218.191406 81.269531 218.78125 80.386719 C 219.367188 79.507812 219.980469 78.640625 220.609375 77.789062 C 221.242188 76.9375 221.894531 76.101562 222.566406 75.285156 C 223.238281 74.464844 223.929688 73.664062 224.640625 72.878906 C 225.351562 72.09375 226.082031 71.324219 226.832031 70.574219 C 227.582031 69.828125 228.347656 69.097656 229.132812 68.382812 C 229.917969 67.671875 230.722656 66.980469 231.539062 66.308594 C 232.359375 65.636719 233.195312 64.984375 234.046875 64.355469 C 234.898438 63.722656 235.761719 63.113281 236.644531 62.523438 C 237.523438 61.933594 238.421875 61.367188 239.328125 60.824219 C 240.238281 60.277344 241.160156 59.757812 242.09375 59.257812 C 243.027344 58.757812 243.976562 58.28125 244.933594 57.828125 C 245.890625 57.375 246.859375 56.945312 247.835938 56.539062 C 248.816406 56.136719 249.804688 55.753906 250.804688 55.398438 C 251.800781 55.039062 252.804688 54.707031 253.820312 54.398438 C 254.835938 54.09375 255.855469 53.808594 256.882812 53.550781 C 257.910156 53.292969 258.945312 53.0625 259.984375 52.855469 C 261.023438 52.648438 262.066406 52.46875 263.113281 52.3125 C 264.164062 52.15625 265.214844 52.027344 266.269531 51.921875 C 267.324219 51.820312 268.378906 51.742188 269.4375 51.691406 C 270.496094 51.636719 271.554688 51.613281 272.617188 51.613281 C 273.675781 51.613281 274.734375 51.636719 275.792969 51.691406 C 276.851562 51.742188 277.90625 51.820312 278.960938 51.921875 C 280.015625 52.027344 281.066406 52.15625 282.117188 52.3125 C 283.164062 52.46875 284.207031 52.648438 285.246094 52.855469 C 286.285156 53.0625 287.320312 53.292969 288.347656 53.550781 C 289.375 53.808594 290.394531 54.09375 291.410156 54.398438 C 292.425781 54.707031 293.429688 55.039062 294.429688 55.398438 C 295.425781 55.753906 296.414062 56.136719 297.394531 56.539062 C 298.371094 56.945312 299.339844 57.375 300.296875 57.828125 C 301.257812 58.28125 302.203125 58.757812 303.136719 59.257812 C 304.070312 59.757812 304.992188 60.277344 305.902344 60.824219 C 306.8125 61.367188 307.707031 61.933594 308.585938 62.523438 C 309.46875 63.113281 310.332031 63.722656 311.183594 64.355469 C 312.035156 64.984375 312.871094 65.636719 313.691406 66.308594 C 314.507812 66.980469 315.3125 67.671875 316.097656 68.382812 C 316.882812 69.097656 317.648438 69.828125 318.398438 70.574219 C 319.148438 71.324219 319.878906 72.09375 320.589844 72.878906 C 321.300781 73.664062 321.992188 74.464844 322.664062 75.285156 C 323.335938 76.101562 323.988281 76.9375 324.621094 77.789062 C 325.25 78.640625 325.863281 79.507812 326.449219 80.386719 C 327.039062 81.269531 327.605469 82.164062 328.152344 83.070312 C 328.695312 83.980469 329.21875 84.902344 329.71875 85.835938 C 330.214844 86.773438 330.691406 87.71875 331.144531 88.675781 C 331.597656 89.632812 332.027344 90.601562 332.433594 91.582031 C 332.839844 92.558594 333.21875 93.546875 333.578125 94.546875 C 333.933594 95.542969 334.265625 96.550781 334.574219 97.5625 C 334.882812 98.578125 335.164062 99.597656 335.421875 100.625 C 335.679688 101.65625 335.910156 102.6875 336.117188 103.726562 C 336.324219 104.765625 336.507812 105.808594 336.660156 106.859375 C 336.816406 107.90625 336.945312 108.957031 337.050781 110.011719 C 337.15625 111.066406 337.230469 112.125 337.285156 113.183594 C 337.335938 114.238281 337.363281 115.300781 337.363281 116.359375 Z M 337.363281 116.359375 " fill-opacity="1" fill-rule="nonzero"/></g></svg>